<svg width="20" height="20" viewBox="0 0 20 20" fill="none" xmlns="http://www.w3.org/2000/svg">
<path fill-rule="evenodd" clip-rule="evenodd" d="M14.5837 3.95837C14.9001 3.95837 15.1616 4.1935 15.203 4.49857L15.2087 4.58337V7.08337C15.2087 7.39979 14.9735 7.66128 14.6685 7.70267L14.5837 7.70837H12.0837C11.7385 7.70837 11.4587 7.42855 11.4587 7.08337C11.4587 6.76696 11.6938 6.50546 11.9989 6.46408L12.0837 6.45837L12.9097 6.45777C12.1042 5.79518 11.0842 5.41671 10.0003 5.41671C7.46902 5.41671 5.41699 7.46874 5.41699 10C5.41699 12.5313 7.46902 14.5834 10.0003 14.5834C12.5316 14.5834 14.5837 12.5313 14.5837 10C14.5837 9.65486 14.8635 9.37504 15.2087 9.37504C15.5538 9.37504 15.8337 9.65486 15.8337 10C15.8337 13.2217 13.222 15.8334 10.0003 15.8334C6.77866 15.8334 4.16699 13.2217 4.16699 10C4.16699 6.77838 6.77866 4.16671 10.0003 4.16671C11.4967 4.16671 12.8989 4.73458 13.9592 5.71527L13.9587 4.58337C13.9587 4.26696 14.1938 4.00546 14.4989 3.96408L14.5837 3.95837Z" fill="#1C1C1C"/>
</svg>
